<svg width="160" height="71" viewBox="0 0 160 71" fill="none" xmlns="http://www.w3.org/2000/svg">
<path d="M47.0125 54.8689C47.0125 56.4098 46.8266 58.063 46.4548 59.8286C46.1048 61.5942 45.5143 63.2314 44.6832 64.7402C43.874 66.249 42.8132 67.517 41.5009 68.5442C40.1886 69.5394 38.5811 70.0369 36.6783 70.0369H4.29772C3.68533 70.0369 3.11667 69.8764 2.59176 69.5554C2.06684 69.2344 1.60755 68.801 1.21386 68.2553C0.842048 67.6775 0.546784 67.0033 0.328071 66.2329C0.109357 65.4625 0 64.6278 0 63.729V7.29422C0 6.42747 0.109357 5.60888 0.328071 4.83844C0.546784 4.068 0.842048 3.39386 1.21386 2.81603C1.60755 2.2382 2.06684 1.78878 2.59176 1.46776C3.11667 1.14674 3.68533 0.986235 4.29772 0.986235H32.8399C33.8897 0.986235 35.0161 1.2591 36.219 1.80483C37.4219 2.35056 38.5373 3.23335 39.5653 4.45322C40.6151 5.64098 41.479 7.19791 42.1571 9.12401C42.8569 11.0501 43.2069 13.4096 43.2069 16.2024V18.5619C43.2069 20.7769 42.9554 23.1685 42.4523 25.7366C41.9493 28.2727 41.14 30.6803 40.0246 32.9595C40.9869 33.8263 41.8837 34.8696 42.7148 36.0894C43.5678 37.3093 44.3114 38.7218 44.9457 40.3268C45.5799 41.9319 46.083 43.7457 46.4548 45.7681C46.8266 47.7905 47.0125 50.0216 47.0125 52.4613V54.8689ZM38.4827 52.4613C38.4827 50.8241 38.3077 49.3635 37.9578 48.0794C37.6078 46.7632 37.1157 45.6397 36.4814 44.7087C35.8472 43.7778 35.0817 43.0715 34.1849 42.59C33.2882 42.0764 32.2821 41.8196 31.1667 41.8196H11.9418V29.2036H27.3283C28.4437 29.2036 29.4498 28.9629 30.3465 28.4813C31.2432 27.9677 32.0087 27.2454 32.643 26.3145C33.2773 25.3835 33.7585 24.276 34.0865 22.9919C34.4365 21.6758 34.6114 20.1991 34.6114 18.5619V16.2024C34.6114 14.4047 34.0209 13.5059 32.8399 13.5059H8.52983V57.5173H36.6783C36.8314 57.5173 37.0173 57.5012 37.236 57.4691C37.4547 57.437 37.6516 57.3407 37.8265 57.1802C38.0015 57.0197 38.1546 56.7469 38.2858 56.3616C38.4171 55.9764 38.4827 55.4467 38.4827 54.7726V52.4613Z" fill="url(#paint0_linear_20_452)"/>
<path d="M93.1392 41.8196H66.2046V29.2036H93.1392V41.8196ZM96.9776 70.0369H66.2046C65.0236 70.0369 63.7332 69.732 62.3334 69.1221C60.9336 68.5121 59.6323 67.517 58.4294 66.1366C57.2483 64.7241 56.2532 62.9104 55.4439 60.6954C54.6565 58.4482 54.2629 55.7036 54.2629 52.4613V7.29422C54.2629 6.42747 54.3722 5.60888 54.5909 4.83844C54.8096 4.068 55.1049 3.39386 55.4767 2.81603C55.8704 2.2382 56.3297 1.78878 56.8546 1.46776C57.3795 1.14674 57.9482 0.986235 58.5606 0.986235H96.9776V13.5059H62.7927V52.4613C62.7927 54.0985 63.088 55.3504 63.6785 56.2172C64.269 57.0839 65.1329 57.5173 66.2702 57.5173H96.9776V70.0369Z" fill="url(#paint1_linear_20_452)"/>
<path d="M160 70.0369H151.405V28.9147L136.28 67.9664C135.909 68.9615 135.384 69.7159 134.706 70.2296C134.05 70.7432 133.339 71 132.573 71C131.83 71 131.13 70.7432 130.474 70.2296C129.839 69.7159 129.336 68.9615 128.965 67.9664L113.775 28.9147V70.0369H105.245V6.33117C105.245 4.88659 105.529 3.60252 106.098 2.47896C106.689 1.3554 107.454 0.601015 108.395 0.215795C108.854 0.0552862 109.313 0.00713371 109.772 0.0713371C110.232 0.103439 110.669 0.247896 111.085 0.50471C111.522 0.729422 111.916 1.06649 112.266 1.51591C112.616 1.93323 112.911 2.44686 113.152 3.05679L132.573 52.6057L151.995 3.05679C152.498 1.83693 153.187 0.970184 154.062 0.456557C154.959 -0.0570696 155.888 -0.137324 156.851 0.215795C157.769 0.601015 158.524 1.3554 159.114 2.47896C159.705 3.60252 160 4.88659 160 6.33117V70.0369Z" fill="url(#paint2_linear_20_452)"/>
<defs>
<linearGradient id="paint0_linear_20_452" x1="155.278" y1="47.7689" x2="-11.6829" y2="59.1533" gradientUnits="userSpaceOnUse">
<stop stop-color="#70FF58"/>
<stop offset="1" stop-color="#BDFBB2"/>
</linearGradient>
<linearGradient id="paint1_linear_20_452" x1="155.278" y1="47.7689" x2="-11.6829" y2="59.1533" gradientUnits="userSpaceOnUse">
<stop stop-color="#70FF58"/>
<stop offset="1" stop-color="#BDFBB2"/>
</linearGradient>
<linearGradient id="paint2_linear_20_452" x1="155.278" y1="47.7689" x2="-11.6829" y2="59.1533" gradientUnits="userSpaceOnUse">
<stop stop-color="#70FF58"/>
<stop offset="1" stop-color="#BDFBB2"/>
</linearGradient>
</defs>
</svg>
