<svg width="80" height="80" viewBox="0 0 80 80" fill="none" xmlns="http://www.w3.org/2000/svg">
<path d="M23.5063 49.5489C23.5063 50.5472 23.4133 51.6183 23.2274 52.7622C23.0524 53.9061 22.7572 54.9668 22.3416 55.9443C21.937 56.9219 21.4066 57.7434 20.7505 58.4089C20.0943 59.0537 19.2905 59.3761 18.3391 59.3761H2.14886C1.84266 59.3761 1.55833 59.2721 1.29588 59.0641C1.03342 58.8561 0.803773 58.5753 0.60693 58.2217C0.421024 57.8474 0.273392 57.4106 0.164035 56.9115C0.0546784 56.4123 0 55.8715 0 55.2892V18.7258C0 18.1643 0.0546784 17.6339 0.164035 17.1348C0.273392 16.6356 0.421024 16.1988 0.60693 15.8245C0.803773 15.4501 1.03342 15.1589 1.29588 14.9509C1.55833 14.743 1.84266 14.639 2.14886 14.639H16.4199C16.9448 14.639 17.508 14.8158 18.1095 15.1693C18.711 15.5229 19.2687 16.0948 19.7827 16.8852C20.3076 17.6547 20.7395 18.6634 21.0785 19.9113C21.4285 21.1592 21.6034 22.6879 21.6034 24.4973V26.026C21.6034 27.4611 21.4777 29.0106 21.2262 30.6744C20.9746 32.3175 20.57 33.8774 20.0123 35.354C20.4935 35.9156 20.9418 36.5915 21.3574 37.3819C21.7839 38.1722 22.1557 39.0873 22.4728 40.1273C22.79 41.1672 23.0415 42.3423 23.2274 43.6526C23.4133 44.9628 23.5063 46.4083 23.5063 47.989V49.5489ZM19.2413 47.989C19.2413 46.9283 19.1539 45.982 18.9789 45.15C18.8039 44.2973 18.5579 43.5694 18.2407 42.9662C17.9236 42.3631 17.5408 41.9055 17.0925 41.5935C16.6441 41.2608 16.1411 41.0944 15.5833 41.0944H5.97088V32.9206H13.6641C14.2219 32.9206 14.7249 32.7647 15.1733 32.4527C15.6216 32.1199 16.0044 31.652 16.3215 31.0488C16.6386 30.4457 16.8792 29.7281 17.0433 28.8962C17.2182 28.0435 17.3057 27.0867 17.3057 26.026V24.4973C17.3057 23.3326 17.0105 22.7503 16.4199 22.7503H4.26492V51.2647H18.3391C18.4157 51.2647 18.5086 51.2543 18.618 51.2335C18.7274 51.2127 18.8258 51.1503 18.9133 51.0463C19.0008 50.9424 19.0773 50.7656 19.1429 50.516C19.2085 50.2664 19.2413 49.9232 19.2413 49.4865V47.989Z" fill="url(#paint0_linear_18_112)"/>
<path d="M46.5696 41.0944H33.1023V32.9206H46.5696V41.0944ZM48.4888 59.3761H33.1023C32.5118 59.3761 31.8666 59.1785 31.1667 58.7833C30.4668 58.3881 29.8161 57.7434 29.2147 56.8491C28.6242 55.9339 28.1266 54.7588 27.722 53.3238C27.3283 51.8679 27.1314 50.0896 27.1314 47.989V18.7258C27.1314 18.1643 27.1861 17.6339 27.2955 17.1348C27.4048 16.6356 27.5525 16.1988 27.7384 15.8245C27.9352 15.4501 28.1649 15.1589 28.4273 14.9509C28.6898 14.743 28.9741 14.639 29.2803 14.639H48.4888V22.7503H31.3963V47.989C31.3963 49.0497 31.544 49.8608 31.8392 50.4224C32.1345 50.9839 32.5665 51.2647 33.1351 51.2647H48.4888V59.3761Z" fill="url(#paint1_linear_18_112)"/>
<path d="M80 59.3761H75.7023V32.7335L68.1402 58.0346C67.9543 58.6793 67.6919 59.1681 67.3529 59.5008C67.0248 59.8336 66.6694 60 66.2866 60C65.9148 60 65.5649 59.8336 65.2368 59.5008C64.9197 59.1681 64.6682 58.6793 64.4823 58.0346L56.8874 32.7335V59.3761H52.6225V18.1019C52.6225 17.166 52.7647 16.334 53.049 15.6061C53.3443 14.8781 53.727 14.3894 54.1972 14.1398C54.4269 14.0358 54.6565 14.0046 54.8862 14.0462C55.1158 14.067 55.3346 14.1606 55.5423 14.327C55.7611 14.4726 55.9579 14.691 56.1329 14.9821C56.3078 15.2525 56.4555 15.5853 56.5758 15.9805L66.2866 48.0826L75.9975 15.9805C76.2491 15.1901 76.5935 14.6286 77.031 14.2958C77.4793 13.963 77.9441 13.911 78.4253 14.1398C78.8846 14.3894 79.2618 14.8781 79.5571 15.6061C79.8524 16.334 80 17.166 80 18.1019V59.3761Z" fill="url(#paint2_linear_18_112)"/>
<defs>
<linearGradient id="paint0_linear_18_112" x1="77.6388" y1="44.9489" x2="-5.99801" y2="49.35" gradientUnits="userSpaceOnUse">
<stop stop-color="#70FF58"/>
<stop offset="1" stop-color="#BDFBB2"/>
</linearGradient>
<linearGradient id="paint1_linear_18_112" x1="77.6388" y1="44.9489" x2="-5.99801" y2="49.35" gradientUnits="userSpaceOnUse">
<stop stop-color="#70FF58"/>
<stop offset="1" stop-color="#BDFBB2"/>
</linearGradient>
<linearGradient id="paint2_linear_18_112" x1="77.6388" y1="44.9489" x2="-5.99801" y2="49.35" gradientUnits="userSpaceOnUse">
<stop stop-color="#70FF58"/>
<stop offset="1" stop-color="#BDFBB2"/>
</linearGradient>
</defs>
</svg>
