<svg width="80" height="80" viewBox="0 0 80 80" fill="none" xmlns="http://www.w3.org/2000/svg">
<path d="M30.4763 34.2857H49.5239V72.381H30.4763V34.2857ZM55.2382 7.61905H74.2858V72.381H55.2382V7.61905ZM5.71436 49.5238H24.762V72.381H5.71436V49.5238Z" fill="#58F5FF"/>
<path d="M51.9918 4.18107C52.0918 3.08104 51.2811 2.10822 50.1811 2.00821L32.255 0.378573C31.155 0.278569 30.1821 1.08925 30.0821 2.18929C29.9821 3.28932 30.7928 4.26214 31.8928 4.36215L47.8271 5.81072L46.3786 21.745C46.2786 22.845 47.0892 23.8179 48.1893 23.9179C49.2893 24.0179 50.2621 23.2072 50.3621 22.1072L51.9918 4.18107ZM3.28037 45.5364L51.2804 5.53644L48.7196 2.46356L0.719631 42.4636L3.28037 45.5364Z" fill="#58F5FF"/>
</svg>
