<svg width="80" height="80" viewBox="0 0 80 80" fill="none" xmlns="http://www.w3.org/2000/svg">
<path d="M69.4442 16.4444C64.4086 15.1005 59.4891 13.3541 54.7331 11.2222C50.0541 9.19246 45.5372 6.80772 41.222 4.08887L39.9998 3.33331L38.7998 4.11109C34.4846 6.82994 29.9677 9.21468 25.2887 11.2444C20.5249 13.3699 15.5979 15.1088 10.5553 16.4444L8.88867 16.8666V35.4C8.88867 65.1555 38.9553 76.2889 39.2442 76.4L39.9998 76.6666L40.7553 76.4C41.0664 76.4 71.1109 65.1778 71.1109 35.4V16.8666L69.4442 16.4444ZM66.6665 35.4C66.6665 59.8444 44.4442 70.0889 39.9998 71.9111C35.5553 70.0889 13.3331 59.8222 13.3331 35.4V20.3111C18.0208 18.9635 22.6096 17.2928 27.0665 15.3111C31.5236 13.3844 35.8447 11.1571 39.9998 8.64442C44.1549 11.1571 48.476 13.3844 52.9331 15.3111C57.39 17.2928 61.9787 18.9635 66.6665 20.3111V35.4Z" fill="#FF5858"/>
<path d="M24.1779 37.4889C23.7528 37.1248 23.206 36.9346 22.6467 36.9562C22.0874 36.9778 21.5569 37.2096 21.1611 37.6054C20.7654 38.0012 20.5335 38.5317 20.5119 39.091C20.4903 39.6502 20.6805 40.1971 21.0446 40.6222L34.3779 53.9555L58.6668 30.6C59.0912 30.1874 59.3342 29.6232 59.3426 29.0314C59.3509 28.4396 59.1238 27.8688 58.7113 27.4444C58.2987 27.0201 57.7345 26.777 57.1427 26.7687C56.5509 26.7603 55.9801 26.9874 55.5557 27.4L34.5113 47.8222L24.1779 37.4889Z" fill="#FF5858"/>
</svg>
