<svg width="80" height="80" viewBox="0 0 80 80" fill="none" xmlns="http://www.w3.org/2000/svg">
<g id="grade_24px">
<path id="icon/action/grade_24px" fill-rule="evenodd" clip-rule="evenodd" d="M30.6332 30.4333L39.9998 8.33334L49.3665 30.4333L73.3332 32.4667L55.1332 48.2333L60.5998 71.6667L39.9998 59.2333L19.3998 71.6667L24.8665 48.2333L6.6665 32.4667L30.6332 30.4333ZM43.2332 33.0667L39.9998 25.4333L36.7665 33L35.1998 36.7L31.1998 37.0333L22.9665 37.7333L29.2332 43.1667L32.2665 45.8L31.3665 49.7333L29.4998 57.7667L36.5665 53.5L39.9998 51.4333L43.4332 53.5667L50.4998 57.8333L48.6332 49.8L47.7332 45.8667L50.7665 43.2333L57.0332 37.8L48.7998 37.1L44.7998 36.7667L43.2332 33.0667Z" fill="#E547F2"/>
</g>
</svg>
