<svg width="40" height="40" viewBox="0 0 40 40" fill="none" xmlns="http://www.w3.org/2000/svg">
<g clip-path="url(#clip0_17_75)">
<path d="M29.3017 18.2907C29.5027 18.3647 29.7086 18.4 29.9129 18.4C30.5591 18.3992 31.1719 18.0443 31.4288 17.4591C32.7341 14.4802 31.759 11.1543 28.9442 8.98735C26.265 6.92297 22.7381 6.62154 19.9679 8.21507C19.2018 8.65513 18.9704 9.58211 19.4492 10.2853C19.9264 10.9887 20.9349 11.1998 21.7008 10.7613C23.5838 9.68108 25.5914 10.3235 26.8455 11.2901C28.1445 12.2896 29.3285 14.2103 28.3966 16.3356C28.0603 17.1056 28.4656 17.9805 29.3017 18.2907Z" fill="#00C4F0"/>
<path d="M21.1744 3.85333C25.173 2.21675 29.2927 2.85771 32.2031 5.56845C35.1206 8.28791 36.22 12.4796 35.0699 16.5083C34.8463 17.2905 35.285 18.1109 36.047 18.3402C36.1821 18.3805 36.3184 18.4 36.452 18.4C37.0763 18.4 37.6499 17.9819 37.8342 17.3374C39.295 12.2156 37.8793 6.86912 34.1393 3.3832C30.3951 -0.108321 25.1479 -0.954072 20.106 1.11069C19.3678 1.41353 19.0079 2.27286 19.3032 3.02987C19.5983 3.78777 20.4377 4.15321 21.1744 3.85333Z" fill="#00C4F0"/>
<path d="M9.72437 30.2721C13.8772 34.48 19.0082 37.8265 23.451 39.2247C24.8801 39.6764 26.6915 40 28.5937 40C30.3802 40 32.2472 39.7145 33.9516 38.9802C35.9167 38.1353 37.7282 36.6734 38.7957 35.0686C38.8117 35.0438 40.4445 32.5533 39.8822 30.6652C39.276 28.6022 36.8335 27.1673 34.4232 25.8956C30.6497 23.7645 28.2291 23.154 25.4513 25.7419C25.4059 25.7844 25.3634 25.8298 25.3225 25.8781C24.6855 25.9629 22.4612 25.4418 19.9997 23.4359C19.3891 22.9388 18.7813 22.3891 18.1941 21.8025C17.6201 21.2278 17.0695 20.6202 16.56 19.9987C14.5612 17.5411 14.0312 15.3302 14.1204 14.6823C14.1717 14.6407 14.2184 14.596 14.2624 14.5483C16.8425 11.7722 16.2319 9.34828 14.1217 5.61247C12.8316 3.16876 11.4009 0.731644 9.33331 0.115281C7.42673 -0.44036 4.94915 1.19223 4.92561 1.20827C3.31923 2.27637 1.85784 4.08528 1.01439 6.04802C-0.492431 9.56133 -0.100021 13.7751 0.769823 16.5482C2.16988 20.9901 5.51595 26.1198 9.72437 30.2721ZM3.77042 7.23142C4.37381 5.82582 5.47937 4.44151 6.58778 3.70431C7.17062 3.31554 8.11649 2.98899 8.44158 2.98899C8.45762 2.98899 8.47231 2.98974 8.48401 2.99199C9.50905 3.29725 10.9323 5.99644 11.4888 7.04985C13.4716 10.5579 13.1976 11.2666 12.1799 12.3838C11.6704 12.7644 11.3218 13.3516 11.1871 14.0661C10.8137 16.0479 12.0379 19.1921 14.2373 21.8943C14.8113 22.5964 15.4293 23.2786 16.0736 23.9236C16.7326 24.5818 17.4164 25.1996 18.1046 25.7604C20.796 27.9552 23.943 29.177 25.9256 28.8139C26.8056 28.6506 27.3211 28.2216 27.6198 27.8219C28.784 26.7574 29.4723 26.5438 32.9851 28.5269C34.0028 29.0642 36.7045 30.4904 37.0002 31.4859C37.0427 31.7912 36.703 32.7986 36.2988 33.4083C35.5622 34.5138 34.1755 35.6192 32.7654 36.2261C29.9993 37.4164 26.5069 37.0461 24.3528 36.3645C20.3508 35.106 15.678 32.0386 11.8518 28.1593C11.8475 28.1542 11.8416 28.1498 11.8371 28.1446C7.95814 24.3187 4.89037 19.6473 3.63097 15.6494C2.95485 13.4928 2.58434 9.99418 3.77042 7.23142Z" fill="#00C4F0"/>
</g>
<defs>
<clipPath id="clip0_17_75">
<rect width="40" height="40" fill="white"/>
</clipPath>
</defs>
</svg>
