<svg width="80" height="80" viewBox="0 0 80 80" fill="none" xmlns="http://www.w3.org/2000/svg">
<path d="M24.9337 48.1662L18.3837 41.6162L16.6162 43.3837L24.1162 50.8837C24.35 51.1187 24.6687 51.25 25 51.25C25.015 51.25 25.0287 51.25 25.045 51.2487C25.3912 51.2362 25.7175 51.08 25.945 50.8187L42.195 32.0687L40.305 30.43L24.9337 48.1662Z" fill="#FFDA58"/>
<path d="M28.5889 13.75C14.0914 13.75 2.33887 25.5025 2.33887 40C2.33887 51.8887 10.2489 61.92 21.0889 65.1488V71.25H23.5889V77.5H33.5889V71.25H36.0889V65.1488C46.9289 61.92 54.8389 51.89 54.8389 40C54.8389 25.5025 43.0864 13.75 28.5889 13.75ZM28.5889 60C17.5426 60 8.58887 51.0462 8.58887 40C8.58887 28.9538 17.5426 20 28.5889 20C39.6351 20 48.5889 28.9538 48.5889 40C48.5889 51.0462 39.6351 60 28.5889 60Z" fill="#FFDA58"/>
<path d="M69.8389 36.25C69.8389 38.3212 71.5176 40 73.5889 40C75.6601 40 77.3389 38.3212 77.3389 36.25V21.25H69.8389V36.25Z" fill="#FFDA58"/>
<path d="M68.5889 36.25V2.5H39.8389V14.9162C42.6539 16.1837 45.2164 17.9087 47.4339 20H64.8389V22.5H49.7864C50.7551 23.6712 51.6226 24.9275 52.3889 26.25H64.8389V28.75H53.6726C54.2164 29.9562 54.6739 31.2087 55.0401 32.5H64.8389V35H55.6251C55.9251 36.6225 56.0889 38.2925 56.0889 40H70.7464C69.4614 39.2375 68.5889 37.85 68.5889 36.25ZM53.5889 16.25H43.5889V7.5H53.5889V16.25ZM64.8389 16.25H56.0889V13.75H64.8389V16.25ZM64.8389 10H56.0889V7.5H64.8389V10Z" fill="#FFDA58"/>
</svg>
