<svg width="40" height="40" viewBox="0 0 40 40" fill="none" xmlns="http://www.w3.org/2000/svg">
<path d="M18.9975 0.00624294C15.7875 0.0449929 8.88626 0.572493 5.02626 4.11374C2.15501 6.95874 1.15251 11.165 1.03501 16.3662C0.937511 21.5487 0.820011 31.2812 10.2013 33.9312V37.9675C10.2013 37.9675 10.1425 39.5825 11.21 39.9137C12.525 40.33 13.2738 39.0875 14.5238 37.7525L16.855 35.1162C23.2738 35.65 28.19 34.42 28.7563 34.2375C30.0588 33.8212 37.395 32.8837 38.5938 23.15C39.8238 13.0975 37.995 6.76374 34.6938 3.89874H34.6738C33.6775 2.98124 29.6738 0.0637429 20.7288 0.0312429C20.7288 0.0312429 20.065 -0.0125071 18.9975 0.00624294ZM19.1075 2.83249C20.0188 2.82624 20.5725 2.86499 20.5725 2.86499C28.1438 2.88499 31.7575 5.16374 32.61 5.93124C35.39 8.31374 36.8225 14.0237 35.7738 22.4162C34.7775 30.5537 28.8275 31.0687 27.7263 31.42C27.2575 31.57 22.9275 32.6375 17.4725 32.2862C17.4725 32.2862 13.41 37.1887 12.14 38.4512C11.9388 38.6725 11.7038 38.7375 11.5538 38.705C11.3388 38.6525 11.2738 38.3862 11.2863 38.0212L11.325 31.3225C3.36876 29.1225 3.83751 20.8212 3.92251 16.485C4.02001 12.1487 4.83376 8.60124 7.25626 6.19874C10.5175 3.24999 16.3775 2.85249 19.105 2.83249H19.1075ZM19.7075 7.16749C19.4338 7.16124 19.2063 7.38874 19.2063 7.66249C19.2063 7.94249 19.4338 8.16374 19.7075 8.16374C22.2138 8.11874 24.63 9.06874 26.4263 10.8137C28.2425 12.5775 29.1275 14.9475 29.1613 18.0462C29.1613 18.32 29.3825 18.5475 29.6625 18.5475V18.5275C29.9363 18.5275 30.1638 18.3062 30.1638 18.0325C30.2875 15.0837 29.1938 12.2187 27.1425 10.0962C25.1638 8.16249 22.6563 7.16624 19.7075 7.16624V7.16749ZM13.1188 8.31374C12.7675 8.26124 12.4025 8.33374 12.0963 8.51499H12.07C11.3925 8.91249 10.7613 9.41374 10.1625 10.0837C9.70626 10.6112 9.45876 11.145 9.39376 11.6587C9.35501 11.965 9.38126 12.2712 9.47251 12.5637L9.50501 12.5837C10.0188 14.0937 10.69 15.5462 11.51 16.9137C12.565 18.8337 13.8663 20.6112 15.3775 22.2L15.4225 22.265L15.4938 22.3175L15.5388 22.37L15.5913 22.415C17.1863 23.9325 18.9638 25.2337 20.8913 26.3012C23.0913 27.4987 24.4263 28.065 25.2275 28.3V28.3125C25.4625 28.3837 25.6763 28.4162 25.8913 28.4162C26.575 28.3637 27.22 28.0912 27.7275 27.6287C28.3788 27.0425 28.8925 26.3987 29.2775 25.715V25.7025C29.6613 24.98 29.5313 24.2962 28.9775 23.8337C27.8713 22.8637 26.6663 22.0037 25.3963 21.2625C24.5438 20.8 23.6775 21.08 23.3263 21.5487L22.5775 22.4925C22.1938 22.9612 21.4963 22.8962 21.4963 22.8962L21.4763 22.9087C16.275 21.58 14.8875 16.3137 14.8875 16.3137C14.8875 16.3137 14.8225 15.5975 15.3038 15.2325L16.2413 14.4775C16.69 14.1125 17.0025 13.2475 16.5213 12.3937C15.785 11.1175 14.9263 9.91999 13.9563 8.81249C13.7475 8.55249 13.4488 8.37624 13.1163 8.31124L13.1188 8.31374ZM20.5725 9.79874C19.9088 9.79874 19.9088 10.8012 20.5788 10.8012C22.245 10.8275 23.8338 11.5175 24.9925 12.715C26.0475 13.88 26.5938 15.43 26.49 16.9987C26.4963 17.2725 26.7175 17.4937 26.9913 17.4937L27.0113 17.52C27.285 17.52 27.5125 17.2925 27.5125 17.0187C27.5575 15.0325 26.94 13.3662 25.7288 12.0312C24.5113 10.6962 22.8125 9.94749 20.6438 9.79874C20.6175 9.79874 20.5988 9.79874 20.5725 9.79874ZM21.3938 12.4937C20.71 12.4737 20.6838 13.4962 21.3613 13.5162C23.0088 13.6012 23.8088 14.4337 23.9138 16.1462C23.92 16.42 24.1413 16.635 24.4088 16.635H24.4288C24.7088 16.6225 24.93 16.3812 24.91 16.1012C24.7925 13.8687 23.575 12.6112 21.4138 12.495C21.4075 12.495 21.4013 12.495 21.3938 12.495V12.4937Z" fill="#00C4F0"/>
</svg>
