<svg width="205" height="199" viewBox="0 0 205 199" fill="none" xmlns="http://www.w3.org/2000/svg">
<g filter="url(#filter0_d_57_204)">
<path d="M7.28125 118.125C5.47 118.125 4 116.655 4 114.844V9.84375C4 4.41656 8.41656 0 13.8438 0H191.031C196.458 0 200.875 4.41656 200.875 9.84375V19.6875C200.875 21.4988 199.405 22.9688 197.594 22.9688C195.783 22.9688 194.312 21.4988 194.312 19.6875V9.84375C194.312 8.03906 192.836 6.5625 191.031 6.5625H13.8438C12.0391 6.5625 10.5625 8.03906 10.5625 9.84375V114.844C10.5625 116.655 9.0925 118.125 7.28125 118.125Z" fill="#00D0FF"/>
<path d="M102.438 190.312H66.3438C64.5325 190.312 63.0625 188.842 63.0625 187.031C63.0625 185.22 64.5325 183.75 66.3438 183.75H72.9062C78.3334 183.75 82.75 179.333 82.75 173.906V157.5C82.75 155.689 84.22 154.219 86.0312 154.219C87.8425 154.219 89.3125 155.689 89.3125 157.5V173.906C89.3125 177.601 88.0853 181.007 86.0247 183.75H102.438C104.249 183.75 105.719 185.22 105.719 187.031C105.719 188.842 104.249 190.312 102.438 190.312Z" fill="#00D0FF"/>
<path d="M99.1562 157.5H13.8438C8.41656 157.5 4 153.083 4 147.656V127.969C4 126.158 5.47 124.688 7.28125 124.688H99.1562C100.967 124.688 102.438 126.158 102.438 127.969C102.438 129.78 100.967 131.25 99.1562 131.25H10.5625V147.656C10.5625 149.461 12.0391 150.938 13.8438 150.938H99.1562C100.967 150.938 102.438 152.407 102.438 154.219C102.438 156.03 100.967 157.5 99.1562 157.5Z" fill="#00D0FF"/>
<path d="M138.531 45.9375H171.344C173.155 45.9375 174.625 44.4675 174.625 42.6562C174.625 40.845 173.155 39.375 171.344 39.375H138.531C136.72 39.375 135.25 40.845 135.25 42.6562C135.25 44.4675 136.72 45.9375 138.531 45.9375Z" fill="#00D0FF"/>
<path d="M151.656 177.188H158.219C160.03 177.188 161.5 175.717 161.5 173.906C161.5 172.095 160.03 170.625 158.219 170.625H151.656C149.845 170.625 148.375 172.095 148.375 173.906C148.375 175.717 149.845 177.188 151.656 177.188Z" fill="#00D0FF"/>
<path d="M184.469 190.312H125.406C116.357 190.312 109 182.956 109 173.906V42.6562C109 33.6066 116.357 26.25 125.406 26.25H184.469C193.518 26.25 200.875 33.6066 200.875 42.6562V173.906C200.875 182.956 193.518 190.312 184.469 190.312ZM125.406 32.8125C119.979 32.8125 115.562 37.2291 115.562 42.6562V173.906C115.562 179.333 119.979 183.75 125.406 183.75H184.469C189.896 183.75 194.312 179.333 194.312 173.906V42.6562C194.312 37.2291 189.896 32.8125 184.469 32.8125H125.406Z" fill="#00D0FF"/>
</g>
<defs>
<filter id="filter0_d_57_204" x="0" y="0" width="204.875" height="198.312" filterUnits="userSpaceOnUse" color-interpolation-filters="sRGB">
<feFlood flood-opacity="0" result="BackgroundImageFix"/>
<feColorMatrix in="SourceAlpha" type="matrix" values="0 0 0 0 0 0 0 0 0 0 0 0 0 0 0 0 0 0 127 0" result="hardAlpha"/>
<feOffset dy="4"/>
<feGaussianBlur stdDeviation="2"/>
<feComposite in2="hardAlpha" operator="out"/>
<feColorMatrix type="matrix" values="0 0 0 0 0 0 0 0 0 0 0 0 0 0 0 0 0 0 0.25 0"/>
<feBlend mode="normal" in2="BackgroundImageFix" result="effect1_dropShadow_57_204"/>
<feBlend mode="normal" in="SourceGraphic" in2="effect1_dropShadow_57_204" result="shape"/>
</filter>
</defs>
</svg>
