<svg width="254" height="156" viewBox="0 0 254 156" fill="none" xmlns="http://www.w3.org/2000/svg">
<g clip-path="url(#clip0_58_312)">
<path d="M122.927 19.1332C116.228 7.25635 101.768 0.426025 86.0446 0.426025C66.648 0.426025 50.4042 12.8028 46.4811 29.3654C50.724 22.4892 60.5512 17.6601 70.8713 17.6601C83.8073 17.6601 90.6318 24.8972 90.8211 25.082C94.4113 28.6022 96.2063 32.5351 96.2063 37.3731C96.2063 38.9113 95.3398 41.192 93.7406 43.0778C93.4844 43.3737 92.6978 43.7937 92.6978 44.7048C92.6978 45.4532 93.2347 46.172 94.1893 46.7755C98.7358 49.6405 107.305 49.2618 107.328 49.2618C110.695 49.2534 113.997 48.427 116.892 46.8687C119.814 45.3223 122.238 43.1106 123.926 40.4528C125.613 37.795 126.505 34.7836 126.512 31.7171C126.594 25.2936 123.983 21.0235 122.927 19.1332ZM79.0046 69.5975C75.9781 67.8902 73.3843 65.622 71.3935 62.9417C66.0181 55.928 65.8059 48.8018 68.1134 42.8264C69.7543 38.134 73.013 34.0426 77.4103 31.1536C87.0384 24.4682 92.8871 30.3179 93.5757 31.0057C93.3489 30.4894 93.0823 29.9883 92.7777 29.5059C91.2699 27.1498 88.8612 24.1207 83.5478 21.5915C78.0451 18.975 72.0283 18.8419 70.8778 18.8419C64.5608 18.8419 58.1654 20.7647 53.3301 24.1207C50.1055 26.354 46.3669 30.1138 45.6864 35.1841C45.5101 37.0048 45.2376 44.4726 49.4397 52.677C52.984 59.5307 58.7809 65.2229 66.0353 68.9728C73.2898 72.7227 81.6465 74.3467 89.9595 73.622C83.7387 72.6429 79.2135 69.6818 79.0046 69.5975ZM119.919 55.0538C119.727 54.9434 119.506 54.882 119.278 54.876C119.051 54.8701 118.826 54.9197 118.627 55.0198C117.548 55.531 116.436 55.9815 115.296 56.3687C111.666 57.5993 107.822 58.2266 103.946 58.2205C88.9869 58.2205 75.9563 48.8935 75.9563 36.922C75.9743 35.547 76.3382 34.1938 77.0202 32.9655C74.4162 35.047 72.2701 37.5563 70.695 40.3608C68.2603 44.7048 65.3098 53.3958 72.8704 62.7923C73.9327 64.1101 76.6237 67.2295 82.0089 69.843C85.8553 71.714 90.0052 72.7435 93.7096 72.7435C99.444 72.7435 112.546 67.7975 120.309 56.6409C120.399 56.5136 120.46 56.3715 120.489 56.2227C120.518 56.0739 120.515 55.9213 120.478 55.7738C120.442 55.6263 120.374 55.4868 120.278 55.3632C120.182 55.2397 120.06 55.1345 119.919 55.0538Z" fill="url(#paint0_linear_58_312)"/>
<path d="M122.927 19.1332C116.228 7.25635 101.768 0.426025 86.0446 0.426025C66.648 0.426025 50.4042 12.8028 46.4811 29.3654C50.724 22.4892 60.5512 17.6601 70.8713 17.6601C83.8073 17.6601 90.6318 24.8972 90.8211 25.082C94.4113 28.6022 96.2063 32.5351 96.2063 37.3731C96.2063 38.9113 95.3398 41.192 93.7406 43.0778C93.4844 43.3737 92.6978 43.7937 92.6978 44.7048C92.6978 45.4532 93.2347 46.172 94.1893 46.7755C98.7358 49.6405 107.305 49.2618 107.328 49.2618C110.695 49.2534 113.997 48.427 116.892 46.8687C119.814 45.3223 122.238 43.1106 123.926 40.4528C125.613 37.795 126.505 34.7836 126.512 31.7171C126.594 25.2936 123.983 21.0235 122.927 19.1332ZM79.0046 69.5975C75.9781 67.8902 73.3843 65.622 71.3935 62.9417C66.0181 55.928 65.8059 48.8018 68.1134 42.8264C69.7543 38.134 73.013 34.0426 77.4103 31.1536C87.0384 24.4682 92.8871 30.3179 93.5757 31.0057C93.3489 30.4894 93.0823 29.9883 92.7777 29.5059C91.2699 27.1498 88.8612 24.1207 83.5478 21.5915C78.0451 18.975 72.0283 18.8419 70.8778 18.8419C64.5608 18.8419 58.1654 20.7647 53.3301 24.1207C50.1055 26.354 46.3669 30.1138 45.6864 35.1841C45.5101 37.0048 45.2376 44.4726 49.4397 52.677C52.984 59.5307 58.7809 65.2229 66.0353 68.9728C73.2898 72.7227 81.6465 74.3467 89.9595 73.622C83.7387 72.6429 79.2135 69.6818 79.0046 69.5975ZM119.919 55.0538C119.727 54.9434 119.506 54.882 119.278 54.876C119.051 54.8701 118.826 54.9197 118.627 55.0198C117.548 55.531 116.436 55.9815 115.296 56.3687C111.666 57.5993 107.822 58.2266 103.946 58.2205C88.9869 58.2205 75.9563 48.8935 75.9563 36.922C75.9743 35.547 76.3382 34.1938 77.0202 32.9655C74.4162 35.047 72.2701 37.5563 70.695 40.3608C68.2603 44.7048 65.3098 53.3958 72.8704 62.7923C73.9327 64.1101 76.6237 67.2295 82.0089 69.843C85.8553 71.714 90.0052 72.7435 93.7096 72.7435C99.444 72.7435 112.546 67.7975 120.309 56.6409C120.399 56.5136 120.46 56.3715 120.489 56.2227C120.518 56.0739 120.515 55.9213 120.478 55.7738C120.442 55.6263 120.374 55.4868 120.278 55.3632C120.182 55.2397 120.06 55.1345 119.919 55.0538Z" fill="url(#paint1_linear_58_312)"/>
</g>
<g clip-path="url(#clip1_58_312)">
<path d="M41.7764 32.5631C64.8488 32.5631 83.5527 49.5154 83.5527 70.4272C83.5527 91.3389 64.8488 108.291 41.7764 108.291C18.704 108.291 9.91821e-05 91.3389 9.91821e-05 70.4272C9.91821e-05 49.5154 18.704 32.5631 41.7764 32.5631Z" fill="#6573C3"/>
<path opacity="0.1" d="M71.3364 43.925L12.533 97.219C28.8214 111.982 55.0488 111.982 71.3364 97.219C87.6248 82.4559 87.6248 58.6873 71.3364 43.925Z" fill="black"/>
<path d="M12.533 96.9321L37.8773 67.3981L41.307 70.5065L45.1185 73.961L12.533 96.9321Z" fill="#F2F2F2"/>
<path d="M71.0199 43.9224L38.4343 66.8933L45.6754 73.4563L71.0199 43.9224Z" fill="#F34235"/>
<path opacity="0.2" d="M71.0197 43.6381L12.2163 96.932C-4.07211 82.169 -4.07211 58.3977 12.2163 43.6354C28.5048 28.8723 54.7322 28.875 71.0197 43.6381Z" fill="white"/>
<path opacity="0.4" d="M41.7763 32.5631C18.6353 32.5631 0.00782329 49.5232 0.00782329 70.5903C0.00782329 70.7899 -0.00977912 70.9878 0.00782329 71.1845C0.45385 50.4749 18.9179 33.9205 41.7763 33.9205C64.6334 33.9205 83.0972 50.4749 83.5447 71.1845C83.5626 70.9878 83.5447 70.79 83.5447 70.5903C83.5447 49.5232 64.916 32.5631 41.7763 32.5631Z" fill="white"/>
</g>
<g clip-path="url(#clip2_58_312)">
<path d="M167.932 0.759157C144.861 0.759157 126.164 17.7137 126.164 38.6225C126.168 48.3519 130.302 57.7071 137.71 64.7483C145.118 71.7896 155.232 75.9768 165.955 76.4418C166.622 76.4711 167.277 76.4876 167.942 76.4876C178.642 76.4876 188.393 72.823 195.784 66.8496C190.888 69.796 185.158 71.4854 179.041 71.4854C169.09 71.4854 160.185 67.009 154.191 59.9563C149.569 55.02 146.575 47.7108 146.375 39.513V37.7265C146.577 29.5359 149.569 22.2249 154.178 17.2831C160.173 10.2287 169.084 5.76142 179.037 5.76142C185.156 5.76142 190.884 7.45633 195.78 10.4027C188.421 4.43482 178.729 0.795803 168.087 0.757324H167.93L167.932 0.759157Z" fill="url(#paint2_linear_58_312)"/>
<path d="M154.182 17.2832C158.024 13.1843 162.971 10.7124 168.382 10.7124C180.545 10.7124 190.406 23.2309 190.406 38.6225C190.406 54.0141 180.547 66.5326 168.382 66.5326C162.971 66.5326 158.024 64.059 154.19 59.9619C160.185 67.0164 169.09 71.4909 179.041 71.4909C185.16 71.4909 190.888 69.796 195.784 66.8551C204.33 59.9161 209.709 49.8401 209.709 38.6189C209.709 27.3977 204.332 17.3272 195.776 10.3918C190.879 7.44539 185.162 5.75598 179.041 5.75598C169.09 5.75598 160.185 10.2324 154.19 17.285" fill="url(#paint3_linear_58_312)"/>
</g>
<path d="M212.715 103.813C233.724 103.813 250.755 89.0097 250.755 70.7486C250.755 52.4875 233.724 37.684 212.715 37.684C191.705 37.684 174.674 52.4875 174.674 70.7486C174.674 89.0097 191.705 103.813 212.715 103.813Z" fill="url(#paint4_radial_58_312)"/>
<path d="M172.138 70.7486C169.602 100.874 214.405 116.304 233.848 102.344C231.312 103.813 224.549 103.813 224.549 103.813C224.549 103.813 247.374 98.6698 249.065 88.383C246.528 91.3221 241.456 93.5264 241.456 93.5264C241.456 93.5264 257.518 81.0353 253.291 65.6052C253.291 65.6052 254.982 67.8095 250.755 76.6267C254.982 50.9098 238.075 47.9707 238.075 38.4187C238.075 38.4187 236.384 41.3578 236.384 42.0926C231.312 38.4187 227.086 35.4796 226.24 31.8058C226.24 31.8058 209.333 48.7055 228.776 61.1966C243.992 80.3006 214.405 98.6698 197.498 81.0353C201.725 82.5049 208.488 83.2396 215.251 79.5658C224.549 80.3006 217.787 72.9529 209.333 75.1572C193.272 78.831 193.272 61.1966 201.725 67.8095C203.416 65.6052 202.57 62.6661 202.57 62.6661C205.952 59.727 208.488 61.9313 211.869 56.7879C213.56 52.3793 205.106 58.2575 201.725 51.6446C202.57 49.4403 204.261 47.2359 208.488 45.0316C202.57 42.8273 197.498 47.9707 197.498 47.9707C197.498 47.9707 192.426 45.7664 186.509 47.2359C182.282 44.2969 183.127 39.8882 183.127 39.8882C183.127 39.8882 178.055 42.0926 177.21 52.3793C172.138 56.7879 170.447 64.1356 170.447 64.1356L172.983 60.4618C172.983 60.4618 170.447 67.0747 170.447 73.6876" fill="url(#paint5_radial_58_312)"/>
<g clip-path="url(#clip3_58_312)">
<path d="M166.27 156C189.342 156 208.046 139.217 208.046 118.515C208.046 97.812 189.342 81.0292 166.27 81.0292C143.197 81.0292 124.493 97.812 124.493 118.515C124.493 139.217 143.197 156 166.27 156Z" fill="white"/>
<path d="M193.007 124.951C193.007 111.986 181.036 101.476 166.27 101.476C151.504 101.476 139.533 111.986 139.533 124.951H147.172C147.172 115.69 155.723 108.184 166.269 108.184C176.817 108.184 185.367 115.69 185.367 124.951" fill="black" fill-opacity="0.1"/>
<path d="M168.358 135.553C175.972 135.553 182.145 129.959 182.145 123.058C182.145 116.157 175.972 110.563 168.358 110.563C160.745 110.563 154.572 116.157 154.572 123.058C154.572 129.959 160.745 135.553 168.358 135.553Z" fill="black" fill-opacity="0.1"/>
<path d="M166.27 131.767C174.576 131.767 181.309 125.664 181.309 118.136C181.309 110.608 174.576 104.505 166.27 104.505C157.964 104.505 151.23 110.608 151.23 118.136C151.23 125.664 157.964 131.767 166.27 131.767Z" fill="url(#paint6_linear_58_312)"/>
<path d="M203.869 101.375C193.5 82.5745 168.182 74.909 147.319 84.2528C140.814 87.1669 135.254 91.5444 131.178 96.9631L148.127 123.437C145.005 114.497 150.519 104.968 160.439 102.155C162.183 101.661 164 101.398 165.829 101.375" fill="url(#paint7_linear_58_312)"/>
<path d="M131.578 96.932C118.722 114.374 123.847 137.991 143.024 149.683C148.957 153.3 155.811 155.475 162.931 156L180.474 128.842C173.914 136.073 162.152 137.098 154.202 131.132C151.502 129.106 149.482 126.431 148.375 123.411" fill="url(#paint8_linear_58_312)"/>
<path d="M162.928 155.891C186.034 157.466 206.18 141.844 207.927 120.998C208.49 114.271 207.052 107.533 203.759 101.476H165.925C176.269 101.518 184.617 109.119 184.568 118.452C184.549 122.228 183.129 125.89 180.534 128.852" fill="url(#paint9_linear_58_312)"/>
<path d="M131.178 96.4555L148.779 123.437C147.474 119.556 147.751 115.394 149.559 111.676L131.959 95.4175" fill="url(#paint10_linear_58_312)"/>
<path d="M162.843 156L180.474 128.738C177.692 131.752 173.848 133.797 169.595 134.53L162.092 156" fill="url(#paint11_linear_58_312)"/>
<path d="M203.957 101.476H166.27C171.946 101.501 177.303 104.01 180.822 108.291L204.704 102.552" fill="url(#paint12_linear_58_312)"/>
</g>
<g clip-path="url(#clip4_58_312)">
<path opacity="0.2" d="M96.0856 87.3714C116.274 87.3714 132.64 102.205 132.64 120.502C132.64 138.8 116.274 153.634 96.0856 153.634C75.8972 153.634 59.5313 138.8 59.5313 120.502C59.5313 102.205 75.8972 87.3714 96.0856 87.3714Z" fill="black"/>
<path d="M96.0857 80.2718C119.158 80.2718 137.862 97.2242 137.862 118.136C137.862 139.048 119.158 156 96.0857 156C73.0133 156 54.3094 139.048 54.3094 118.136C54.3094 97.2242 73.0133 80.2718 96.0857 80.2718Z" fill="#E4E4E4"/>
<path opacity="0.2" d="M96.0855 85.0049C75.8345 85.0049 59.5312 99.7813 59.5312 118.136C59.5312 118.536 59.5822 118.923 59.5975 119.319C60.2862 101.522 76.2753 87.3714 96.0855 87.3714C115.896 87.3714 131.885 101.522 132.574 119.319C132.589 118.923 132.64 118.536 132.64 118.136C132.64 99.7813 116.337 85.0049 96.0855 85.0049Z" fill="white"/>
<path opacity="0.2" d="M96.0855 148.799V121.537M96.0855 121.537L69.9753 99.1028M96.0855 121.537L122.196 99.1028" stroke="black" stroke-width="6" stroke-linecap="round" stroke-linejoin="round"/>
<path d="M96.0856 146.534V122.301M96.0856 122.301L73.1086 98.4467M96.0856 122.301L119.063 98.4467" stroke="#E34241" stroke-width="12" stroke-linecap="round" stroke-linejoin="round"/>
</g>
<defs>
<linearGradient id="paint0_linear_58_312" x1="120.734" y1="27.6408" x2="69.735" y2="7.83454" gradientUnits="userSpaceOnUse">
<stop stop-color="#00D315"/>
<stop offset="1" stop-color="#00C2FF"/>
</linearGradient>
<linearGradient id="paint1_linear_58_312" x1="70.1842" y1="68.1554" x2="68.8111" y2="30.2805" gradientUnits="userSpaceOnUse">
<stop stop-color="#2503F8"/>
<stop offset="1" stop-opacity="0"/>
</linearGradient>
<linearGradient id="paint2_linear_58_312" x1="160.969" y1="1.99415" x2="160.969" y2="75.3827" gradientUnits="userSpaceOnUse">
<stop stop-color="#FF1B2D"/>
<stop offset="0.3" stop-color="#FF1B2D"/>
<stop offset="0.61" stop-color="#FF1B2D"/>
<stop offset="1" stop-color="#A70014"/>
</linearGradient>
<linearGradient id="paint3_linear_58_312" x1="181.948" y1="6.32034" x2="181.948" y2="71.2289" gradientUnits="userSpaceOnUse">
<stop stop-color="#9C0000"/>
<stop offset="0.7" stop-color="#FF4B4B"/>
<stop offset="1" stop-color="#FF4B4B"/>
</linearGradient>
<radialGradient id="paint4_radial_58_312" cx="0" cy="0" r="1" gradientUnits="userSpaceOnUse" gradientTransform="translate(220.323 50.9098) scale(68.4731 59.5163)">
<stop stop-color="#00CCDD"/>
<stop offset="0.3" stop-color="#0066DD"/>
<stop offset="0.6" stop-color="#551177"/>
</radialGradient>
<radialGradient id="paint5_radial_58_312" cx="0" cy="0" r="1" gradientUnits="userSpaceOnUse" gradientTransform="translate(237.289 54.5242) scale(83.5526 75.7282)">
<stop offset="0.2" stop-color="#FFEE44"/>
<stop offset="0.4" stop-color="#FFBB00"/>
<stop offset="0.7" stop-color="#FF2233"/>
<stop offset="0.9" stop-color="#AA0077"/>
</radialGradient>
<linearGradient id="paint6_linear_58_312" x1="166.278" y1="104.483" x2="166.278" y2="131.768" gradientUnits="userSpaceOnUse">
<stop stop-color="#81B4E0"/>
<stop offset="1" stop-color="#0C5A94"/>
</linearGradient>
<linearGradient id="paint7_linear_58_312" x1="167.523" y1="80.3313" x2="167.523" y2="111.218" gradientUnits="userSpaceOnUse">
<stop stop-color="#F06B59"/>
<stop offset="1" stop-color="#DF2227"/>
</linearGradient>
<linearGradient id="paint8_linear_58_312" x1="134.666" y1="145.343" x2="149.558" y2="118.291" gradientUnits="userSpaceOnUse">
<stop stop-color="#388B41"/>
<stop offset="1" stop-color="#4CB749"/>
</linearGradient>
<linearGradient id="paint9_linear_58_312" x1="192.284" y1="148.012" x2="176.923" y2="107.01" gradientUnits="userSpaceOnUse">
<stop stop-color="#E4B022"/>
<stop offset="0.3" stop-color="#FCD209"/>
</linearGradient>
<linearGradient id="paint10_linear_58_312" x1="140.369" y1="122.4" x2="140.369" y2="94.7263" gradientUnits="userSpaceOnUse">
<stop stop-opacity="0.15"/>
<stop offset="0.3" stop-opacity="0.06"/>
<stop offset="1" stop-opacity="0.03"/>
</linearGradient>
<linearGradient id="paint11_linear_58_312" x1="181.57" y1="131.066" x2="162.946" y2="151.94" gradientUnits="userSpaceOnUse">
<stop stop-opacity="0.15"/>
<stop offset="0.3" stop-opacity="0.06"/>
<stop offset="1" stop-opacity="0.03"/>
</linearGradient>
<linearGradient id="paint12_linear_58_312" x1="181.615" y1="138.762" x2="184.376" y2="110.403" gradientUnits="userSpaceOnUse">
<stop stop-opacity="0.15"/>
<stop offset="0.3" stop-opacity="0.06"/>
<stop offset="1" stop-opacity="0.03"/>
</linearGradient>
<clipPath id="clip0_58_312">
<rect width="83.5526" height="75.7282" fill="white" transform="translate(46.7896)"/>
</clipPath>
<clipPath id="clip1_58_312">
<rect width="83.5526" height="75.7282" fill="white" transform="translate(0 32.5631)"/>
</clipPath>
<clipPath id="clip2_58_312">
<rect width="83.5526" height="75.7282" fill="white" transform="translate(125.329)"/>
</clipPath>
<clipPath id="clip3_58_312">
<rect width="83.5526" height="75.7282" fill="white" transform="translate(124.493 80.2719)"/>
</clipPath>
<clipPath id="clip4_58_312">
<rect width="83.5526" height="75.7282" fill="white" transform="translate(54.3093 80.2719)"/>
</clipPath>
</defs>
</svg>
