<svg width="210" height="210" viewBox="0 0 210 210" fill="none" xmlns="http://www.w3.org/2000/svg">
<path d="M52.4872 0.00021668C23.5318 0.000229082 0 23.5323 0 52.4874C0 81.4425 23.5318 104.994 52.5 104.994C55.8138 104.974 58.8697 104.695 62.1066 104.058C67.7072 107.873 74.1007 110.912 81.0443 112.768C87.8661 114.568 94.9392 115.212 101.975 114.639C105.067 114.402 106.133 110.401 103.571 108.653C96.6965 103.947 90.9613 97.6336 87.485 91.6509C99.2625 80.8463 104.997 66.9146 105 52.5002C105 23.533 81.4426 0.000204278 52.4872 0.00021668ZM111.364 0.00021668C109.121 -0.00525218 106.897 0.103125 104.66 0.243747C102.846 0.340479 101.461 1.89072 101.565 3.70444C101.675 5.50887 103.214 6.8845 105.019 6.78061C107.148 6.63329 109.282 6.60389 111.415 6.56272C113.237 6.55655 114.704 5.06522 114.684 3.24301C114.664 1.43021 113.177 -0.0203816 111.364 0.00021668ZM124.591 0.891025C122.925 0.829017 121.455 2.04131 121.227 3.73007C120.99 5.52161 122.243 7.171 124.034 7.41507C126.292 7.70997 128.279 8.11503 130.257 8.50455C132.029 8.88663 133.779 7.75891 134.16 5.98593C134.542 4.21332 133.414 2.46352 131.641 2.08304C129.325 1.5447 126.924 1.22164 124.591 0.891025ZM144.003 5.57578C142.357 5.37079 140.966 6.36581 140.479 7.74832C139.873 9.46073 140.777 11.3399 142.491 11.9396C144.485 12.6135 146.417 13.4502 148.355 14.266C150.02 15.0014 151.962 14.2437 152.687 12.5741C153.42 10.9021 152.649 8.95061 150.97 8.23538C148.427 7.14321 144.564 5.58395 144.003 5.57578ZM52.4872 6.56272C77.8958 6.56272 98.4375 27.0788 98.4375 52.4874C98.435 63.2274 94.6818 73.5249 87.9849 81.6726C83.5423 74.3692 76.9269 68.5623 69.0216 65.1382C73.0126 61.0049 75.4752 55.39 75.4752 49.219C75.4752 36.5731 65.133 26.2566 52.4872 26.2566C39.8413 26.2566 29.5248 36.5731 29.5248 49.219C29.5248 55.39 31.9869 61.0049 35.972 65.1382C28.0635 68.5647 21.4387 74.3787 16.9958 81.6854C10.4732 73.7521 6.5625 63.5824 6.5625 52.4874C6.5625 27.0788 27.0785 6.56271 52.4872 6.56272ZM161.646 14.0609C160.308 13.8983 159.148 14.6062 158.5 15.5733C157.538 17.1175 158.021 19.151 159.57 20.1043C161.388 21.2184 163.145 22.4253 164.896 23.6419C166.382 24.6666 168.419 24.2955 169.452 22.8152C170.499 21.3309 170.138 19.2812 168.651 18.2394C166.821 16.9336 164.928 15.737 163.031 14.5351C162.557 14.2643 162.092 14.1151 161.646 14.0609ZM176.54 26.0259C175.759 26.0771 175.079 26.4393 174.534 27.0064C173.282 28.3062 173.319 30.374 174.611 31.6335C176.182 33.0675 177.631 34.6219 179.091 36.1645C180.319 37.5076 182.408 37.5931 183.744 36.3567C185.08 35.1217 185.153 33.033 183.91 31.704C182.405 30.0275 180.79 28.465 179.161 26.9103C178.203 26.2344 177.321 25.9747 176.54 26.0259ZM189.979 40.9069C189.15 40.8412 188.372 41.1033 187.858 41.4709C186.369 42.4962 185.992 44.5288 187.012 46.021C188.257 47.74 189.343 49.5626 190.447 51.3723C191.383 52.9242 193.401 53.424 194.952 52.4874C196.504 51.5511 197.004 49.5338 196.068 47.9821C194.947 46.0245 193.688 44.1676 192.408 42.3168C191.691 41.3661 190.809 40.9726 189.979 40.9069ZM134.518 42.6565C129.122 42.6565 124.688 47.0909 124.688 52.4874V72.1813C124.688 77.5778 129.122 82.0379 134.518 82.0379H154.212C159.609 82.0379 164.05 77.5778 164.05 72.1813C164.043 70.378 162.585 68.9191 160.781 68.9129C158.968 68.9057 157.487 70.3685 157.481 72.1813C157.481 74.0558 156.087 75.4754 154.212 75.4754H134.518C132.644 75.4754 131.25 74.0558 131.25 72.1813V52.4874C131.25 50.6129 132.644 49.219 134.518 49.219H150.918C152.731 49.2262 154.206 47.7633 154.212 45.9505C154.22 44.1283 152.741 42.6493 150.918 42.6565H134.518ZM164.159 49.219C163.224 49.2377 162.56 49.5034 162.012 49.9431L147.893 61.2353L143.414 56.7492C142.131 55.461 140.044 55.461 138.761 56.7492C137.489 58.0289 137.489 60.0965 138.761 61.3763L145.323 67.9452C146.508 69.1357 148.399 69.235 149.707 68.1823L166.107 55.0573C167.514 53.925 167.739 51.8683 166.613 50.4559C166.068 49.7754 165.265 49.3236 164.159 49.219ZM198.849 58.1142C198.483 58.1514 198.159 58.2441 197.913 58.3514C196.238 59.0572 195.45 60.9923 196.164 62.6644C197.025 64.6088 197.732 66.6161 198.445 68.6181C199.055 70.3228 200.931 71.2121 202.636 70.6048C204.341 69.9951 205.224 68.119 204.617 66.4135C203.926 64.2701 203.065 62.2002 202.22 60.1202C201.414 58.3638 199.947 58.0025 198.849 58.1142ZM205.424 76.9494C205.043 76.8995 204.655 76.9118 204.277 76.9559C202.499 77.317 201.349 79.049 201.714 80.8268C202.175 83.0226 202.432 85.0806 202.707 87.0304C202.915 88.8288 204.542 90.1202 206.341 89.9143C208.139 89.7059 209.431 88.0795 209.225 86.2806C208.99 83.9393 208.511 81.5174 208.154 79.5193C207.639 77.7704 206.566 77.0991 205.424 76.9494ZM113.28 95.1565C111.519 95.1492 109.758 95.2185 107.999 95.3615C104.918 95.6183 103.867 99.6072 106.423 101.347C113.219 106.061 118.323 111.535 122.489 118.388C111.344 128.153 104.997 142.722 104.994 157.481C104.994 186.436 128.526 210 157.481 210C186.436 210 210 186.436 210 157.481C210 128.526 186.436 105 157.481 105C154.187 105.02 151.085 105.34 147.855 105.974C142.113 102.025 135.893 99.0822 128.949 97.2265C123.833 95.876 118.563 95.1784 113.28 95.1565ZM206.7 96.4767C204.887 96.4694 203.412 97.9323 203.405 99.7451C203.392 101.572 203.286 103.388 203.188 105.212C203.083 107.016 204.459 108.569 206.264 108.679C208.069 108.783 209.621 107.407 209.731 105.603C209.899 103.651 209.926 101.694 209.974 99.7451C209.968 97.9418 208.503 96.4829 206.7 96.4767ZM3.56323 101.296C1.64895 101.365 0.372294 102.7 0.269165 104.391C0.109805 106.489 0.063372 108.418 0 110.249C0.00622558 112.062 1.4813 113.531 3.29407 113.524C5.09738 113.518 6.55614 112.096 6.5625 110.249C6.60591 108.347 6.72257 106.404 6.80603 104.776C6.9102 102.971 5.58893 101.296 3.56323 101.296ZM117.574 101.924C120.95 102.189 123.637 102.617 127.257 103.571C133.92 105.352 139.943 108.29 145.253 112.095C146.006 112.643 146.956 112.846 147.868 112.652C151.029 111.953 154.244 111.583 157.481 111.563C182.889 111.563 203.431 132.072 203.431 157.481C203.431 168.576 199.519 178.746 192.991 186.679C188.549 179.37 181.925 173.558 174.015 170.132C178.006 165.999 180.469 160.383 180.469 154.213C180.469 141.567 170.127 131.25 157.481 131.25C144.835 131.25 134.518 141.567 134.518 154.213C134.518 160.385 136.979 166.005 140.966 170.138C133.06 173.564 126.439 179.37 121.996 186.673C115.475 178.74 111.562 168.574 111.562 157.481C111.566 143.542 117.88 130.38 128.757 121.663C129.997 120.675 130.352 118.939 129.603 117.542C126.433 111.693 122.567 106.569 117.574 101.924ZM3.82599 120.08C1.91986 120.215 0.544081 121.913 0.749817 123.72C1.03814 125.981 1.43241 128.233 1.83929 130.475C2.20885 132.246 3.94448 133.385 5.71655 133.019C7.48624 132.66 8.63609 130.939 8.28644 129.167C7.82474 126.979 7.56555 124.909 7.29309 122.97C7.09777 121.284 5.60042 119.956 3.82599 120.08ZM55.9543 124.694C54.4283 124.678 52.8621 124.923 51.3016 125.463C45.1407 127.759 42.6562 132.551 42.6562 137.819C42.6562 143.21 46.1051 146.681 48.6356 149.009C49.9008 150.173 50.9988 151.166 51.6412 152.008C52.2836 152.85 52.4872 153.392 52.4872 154.213C52.4934 156.025 53.9685 157.488 55.7812 157.481C57.5846 157.475 59.0435 156.016 59.0497 154.213C59.0497 151.752 58.0547 149.612 56.8515 148.035C55.6482 146.457 54.266 145.289 53.0704 144.189C50.6791 141.989 49.2188 140.306 49.2188 137.819C49.2188 135.22 50.1141 132.885 53.5318 131.641C56.5449 130.544 59.869 131.742 61.4722 134.519C62.3747 136.091 64.3865 136.633 65.9583 135.73C67.5218 134.819 68.0515 132.816 67.1439 131.25C64.7265 127.165 60.5322 124.741 55.9543 124.694ZM8.79272 139.242C8.42835 139.203 8.05971 139.218 7.70325 139.274C5.50509 139.967 4.78957 141.962 5.35126 143.581C6.073 145.718 6.92669 147.796 7.77374 149.88C8.47962 151.556 10.4147 152.337 12.0868 151.624C13.7486 150.918 14.5272 149.002 13.83 147.336C12.9804 145.385 12.2665 143.38 11.5549 141.376C10.9448 139.955 9.88583 139.358 8.79272 139.242ZM17.2906 157.09C16.4713 156.954 15.6536 157.14 15.0412 157.507C13.4893 158.443 12.9895 160.46 13.9261 162.012C15.0457 163.97 16.3077 165.828 17.5854 167.684C18.6108 169.172 20.6498 169.549 22.142 168.53C23.6306 167.504 24.0079 165.465 22.988 163.973C21.7443 162.252 20.6549 160.43 19.5465 158.622C18.9311 157.684 18.11 157.226 17.2906 157.09ZM55.7812 164.056C53.9691 164.056 52.5 165.525 52.5 167.338C52.5 169.15 53.9691 170.619 55.7812 170.619C57.5934 170.619 59.0625 169.15 59.0625 167.338C59.0625 165.525 57.5934 164.056 55.7812 164.056ZM28.4738 172.785C27.6577 172.79 26.8797 173.113 26.2564 173.637C24.9363 174.87 24.8442 176.932 26.0706 178.258C27.5638 179.954 29.1939 181.514 30.813 183.09C32.1221 184.352 34.2037 184.304 35.4593 182.988C36.7049 181.681 36.663 179.62 35.3632 178.367C33.8129 176.922 32.3673 175.372 30.9091 173.836C30.145 173.093 29.2899 172.78 28.4738 172.785ZM43.656 185.807C42.2767 185.605 41.1193 186.352 40.5222 187.179C39.4974 188.665 39.8685 190.703 41.3489 191.735C43.1661 193.068 45.0693 194.262 46.9693 195.465C48.502 196.415 50.5077 195.947 51.4682 194.421C52.4344 192.883 51.9708 190.851 50.43 189.89C48.6078 188.781 46.8513 187.572 45.098 186.359C44.6018 186.048 44.1157 185.875 43.656 185.807ZM60.1904 195.472C58.856 195.511 57.8235 196.368 57.3065 197.426C56.5902 199.092 57.3648 201.024 59.0305 201.739C61.0909 202.694 63.2249 203.473 65.3494 204.258C67.0551 204.847 68.916 203.948 69.5151 202.246C70.1201 200.533 69.2234 198.654 67.5092 198.054C65.5045 197.387 63.5649 196.547 61.6196 195.728C61.1165 195.537 60.6352 195.459 60.1904 195.472ZM79.0063 201.432C77.3582 201.46 76.1455 202.656 75.8405 204.014C75.4583 205.787 76.5861 207.53 78.3591 207.911C80.5759 208.415 82.8251 208.736 85.069 209.077C86.8699 209.329 88.5303 208.066 88.7732 206.264C89.0249 204.464 87.7676 202.803 85.9662 202.56C83.4552 202.216 81.2048 201.795 79.0063 201.432ZM104.949 203.188C102.821 203.371 100.693 203.398 98.5593 203.431C96.756 203.451 95.3029 204.922 95.3101 206.725C95.3163 208.548 96.8076 210.021 98.6298 210C100.871 210.004 103.097 209.891 105.333 209.757C107.147 209.66 108.539 208.103 108.435 206.29C108.338 204.465 106.781 203.126 104.949 203.188Z" fill="#00D0FF"/>
</svg>
