<svg width="210" height="210" viewBox="0 0 210 210" fill="none" xmlns="http://www.w3.org/2000/svg">
<path d="M105 3.09473C84.8451 3.09473 65.1427 9.07137 48.3845 20.2689C31.6263 31.4664 18.5648 47.3818 10.8518 66.0025C3.13888 84.6233 1.12082 105.113 5.05285 124.881C8.98489 144.648 18.6904 162.806 32.9421 177.058C47.1938 191.31 65.3516 201.015 85.1193 204.947C104.887 208.879 125.377 206.861 143.997 199.148C162.618 191.435 178.534 178.374 189.731 161.616C200.929 144.857 206.905 125.155 206.905 105C206.875 77.9825 196.128 52.0803 177.024 32.976C157.92 13.8717 132.018 3.12544 105 3.09473Z" fill="#2C2C2C"/>
<path d="M105 155.4C110.732 155.4 115.378 150.753 115.378 145.022C115.378 139.29 110.732 134.643 105 134.643C99.2682 134.643 94.6216 139.29 94.6216 145.022C94.6216 150.753 99.2682 155.4 105 155.4Z" fill="white"/>
<path d="M104.829 119.197C103.121 119.199 101.479 118.542 100.244 117.363C99.0083 116.185 98.2752 114.575 98.197 112.87L95.8483 63.7793C95.7968 62.5468 95.9955 61.3167 96.4326 60.1632C96.8697 59.0097 97.536 57.9567 98.3913 57.0678C99.2466 56.179 100.273 55.4726 101.409 54.9915C102.545 54.5104 103.766 54.2644 105 54.2685C106.235 54.2686 107.458 54.5195 108.594 55.006C109.73 55.4925 110.755 56.2045 111.608 57.0989C112.46 57.9933 113.122 59.0514 113.554 60.2092C113.985 61.367 114.177 62.6003 114.118 63.8345L111.427 112.914C111.338 114.606 110.605 116.2 109.378 117.368C108.151 118.537 106.523 119.191 104.829 119.197Z" fill="white"/>
</svg>
