<svg width="210" height="210" viewBox="0 0 210 210" fill="none" xmlns="http://www.w3.org/2000/svg">
<path d="M150.176 48.6544C146.788 46.201 146.137 41.6042 148.72 38.3871C151.303 35.1701 156.145 34.5512 159.532 37.0046C181.713 53.0686 195 77.9956 195 105C195 149.836 158.644 186.607 112.4 190.18L120.117 197.495L120.864 198.316C123.104 201.184 122.855 205.254 120.117 207.854C117.104 210.715 112.22 210.715 109.207 207.854L88.6354 188.319L87.8887 187.498C85.6474 184.63 85.8963 180.56 88.6354 177.96L92.0606 174.708C96.2633 175.407 100.588 175.771 105.002 175.771C107.776 175.771 110.515 175.628 113.211 175.346L113.16 175.395C150.506 171.536 179.571 141.491 179.571 105C179.571 82.6152 168.57 61.9759 150.176 48.6544ZM89.8831 12.5055C86.8704 9.64475 86.8704 5.00638 89.8831 2.14559C92.8958 -0.715197 97.7804 -0.715197 100.793 2.14559L121.365 21.6805C124.377 24.5413 124.377 29.1797 121.365 32.0404L117.936 35.2957C113.736 34.5978 109.414 34.2337 105.002 34.2337C102.221 34.2337 99.4755 34.3785 96.7735 34.6604L96.8301 34.6062C59.489 38.4702 30.4286 68.5124 30.4286 105C30.4286 126.412 40.4873 146.247 57.5427 159.626C60.8275 162.202 61.2907 166.82 58.5774 169.939C55.864 173.059 51.0016 173.498 47.7169 170.922C27.1501 154.789 15 130.83 15 105C15 60.1683 51.3506 23.3989 97.5902 19.8204L89.8831 12.5055ZM136.169 95.5286C139.181 92.6677 139.181 88.0301 136.169 85.169C133.156 82.3082 128.272 82.3082 125.26 85.169L94.7143 114.175L84.7402 104.704C81.728 101.843 76.8435 101.843 73.8309 104.704C70.8183 107.565 70.8183 112.203 73.8309 115.064L89.2598 129.715C92.2725 132.576 97.1561 132.576 100.169 129.715L136.169 95.5286ZM105 163.605C139.084 163.605 166.714 137.367 166.714 105C166.714 72.6336 139.084 46.3954 105 46.3954C70.9161 46.3954 43.2857 72.6336 43.2857 105C43.2857 137.367 70.9161 163.605 105 163.605ZM105 148.954C79.4371 148.954 58.7143 129.275 58.7143 105C58.7143 80.7252 79.4371 61.0466 105 61.0466C130.563 61.0466 151.286 80.7252 151.286 105C151.286 129.275 130.563 148.954 105 148.954Z" fill="#00D0FF"/>
</svg>
