<svg width="210" height="210" viewBox="0 0 210 210" fill="none" xmlns="http://www.w3.org/2000/svg">
<g clip-path="url(#clip0_57_246)">
<path d="M200.071 20.2322H9.75842C4.34436 20.2322 -0.0853271 24.6619 -0.0853271 30.0759V179.921C-0.0853271 185.335 4.34436 189.765 9.75842 189.765H200.071C205.485 189.765 209.915 185.335 209.915 179.921V30.0759C209.915 24.6619 205.485 20.2322 200.071 20.2322ZM82.7761 42.7941H187.327V60.2569H71.3704L82.7761 42.7941ZM41.4651 104.662V91.537H168.538V104.662H41.4651ZM168.535 121.744V134.869H41.4651V121.744H168.535ZM56.5819 45.8883C59.5678 45.8883 61.9894 48.3066 61.9894 51.2892C61.9894 54.2719 59.5678 56.6901 56.5819 56.6901C53.5959 56.6901 51.1744 54.2719 51.1744 51.2892C51.1711 48.3066 53.5926 45.8883 56.5819 45.8883ZM42.2461 45.8883C45.232 45.8883 47.6536 48.3066 47.6536 51.2892C47.6536 54.2719 45.232 56.6901 42.2461 56.6901C39.2601 56.6901 36.8386 54.2719 36.8386 51.2892C36.8386 48.3066 39.2601 45.8883 42.2461 45.8883ZM27.9103 45.8883C30.8962 45.8883 33.3178 48.3066 33.3178 51.2892C33.3178 54.2719 30.8962 56.6901 27.9103 56.6901C24.9244 56.6901 22.5028 54.2719 22.5028 51.2892C22.5028 48.3066 24.9244 45.8883 27.9103 45.8883ZM7.27124 177.43L22.1189 166.153H48.218L33.4195 177.43H7.27124ZM44.7825 177.43L59.6301 166.153H150.196L165.044 177.43H44.7825ZM176.407 177.43L161.608 166.153H187.707L202.558 177.43H176.407Z" fill="#00D0FF"/>
</g>
<defs>
<clipPath id="clip0_57_246">
<rect width="210" height="210" fill="white"/>
</clipPath>
</defs>
</svg>
